# xmcd
#
# Track frame offsets:
# 150
# 18900
# 36150
# 51450
# 67725
# 84600
# 98700
# 119175
# 135375
# 152175
# 169950
#
# Disc length: 2496 seconds
#
#
# Revision: 0
# Processed by: cddbd v1.5.2PL0 Copyright (c) Steve Scherf et al.
# Submitted via: FreeRIP 2.96 
#
DISCID=9209be0b
DTITLE=Varga Istvan - Veled.utazom
DYEAR=2007
DGENRE=Pop
TTITLE0=01.Veled.utazom
TTITLE1=02.Bizz.hat.bennem
TTITLE2=03.Vedd.el
TTITLE3=04.Szep.ez.a.vilag
TTITLE4=05.Hova.visz.a.szel
TTITLE5=06.Barcsak.itt.volnal
TTITLE6=07.Csillagok.koszt.jarok
TTITLE7=08.Jojj.el
TTITLE8=09.Az.en.napom
TTITLE9=10.En.csak.enekelek
TTITLE10=11.Mit.akar.az.eg
EXTD=
EXTT0=
EXTT1=
EXTT2=
EXTT3=
EXTT4=
EXTT5=
EXTT6=
EXTT7=
EXTT8=
EXTT9=
EXTT10=
PLAYORDER=
